HIERARCHY
ROOT Hips
{
 OFFSET 0.000000 0.000000 0.000000
 CHANNELS 6 Xposition Yposition Zposition Yrotation Xrotation Zrotation
 JOINT Chest
 {
  OFFSET 0.000000 9.585900 0.002600
  CHANNELS 3 Yrotation Xrotation Zrotation
  JOINT Chest2
  {
   OFFSET 0.000000 9.601200 -0.005300
   CHANNELS 3 Yrotation Xrotation Zrotation
   JOINT Chest3
   {
    OFFSET 0.000000 9.561800 0.000000
    CHANNELS 3 Yrotation Xrotation Zrotation
    JOINT Chest4
    {
     OFFSET 0.000000 9.552100 0.000000
     CHANNELS 3 Yrotation Xrotation Zrotation
     JOINT Neck
     {
      OFFSET 0.000000 14.453000 0.000000
      CHANNELS 3 Yrotation Xrotation Zrotation
      JOINT Head
      {
       OFFSET 0.000000 8.936500 -0.011300
       CHANNELS 3 Yrotation Xrotation Zrotation
       End Site
       {
        OFFSET 0.000000 17.073600 -0.006000
       }
      }
     }
     JOINT RightCollar
     {
      OFFSET -2.921100 9.558500 0.000000
      CHANNELS 3 Yrotation Xrotation Zrotation
      JOINT RightShoulder
      {
       OFFSET -13.519700 0.000000 0.000000
       CHANNELS 3 Yrotation Xrotation Zrotation
       JOINT RightElbow
       {
        OFFSET 0.000000 -29.696600 0.000000
        CHANNELS 3 Yrotation Xrotation Zrotation
        JOINT RightWrist
        {
         OFFSET 0.000000 -24.004700 0.000000
         CHANNELS 3 Yrotation Xrotation Zrotation
         End Site
         {
          OFFSET 0.000000 -17.728500 0.000000
         }
        }
       }
      }
     }
     JOINT LeftCollar
     {
      OFFSET 2.921100 9.558500 0.000000
      CHANNELS 3 Yrotation Xrotation Zrotation
      JOINT LeftShoulder
      {
       OFFSET 13.519700 0.000000 0.000000
       CHANNELS 3 Yrotation Xrotation Zrotation
       JOINT LeftElbow
       {
        OFFSET 0.000000 -29.696600 0.000000
        CHANNELS 3 Yrotation Xrotation Zrotation
        JOINT LeftWrist
        {
         OFFSET 0.000000 -24.004700 0.000000
         CHANNELS 3 Yrotation Xrotation Zrotation
         End Site
         {
          OFFSET 0.000000 -17.728500 0.000000
         }
        }
       }
      }
     }
    }
   }
  }
 }
 JOINT RightHip
 {
  OFFSET -7.771700 -0.012900 -0.001300
  CHANNELS 3 Yrotation Xrotation Zrotation
  JOINT RightKnee
  {
   OFFSET 0.000000 -40.869800 0.001200
   CHANNELS 3 Yrotation Xrotation Zrotation
   JOINT RightAnkle
   {
    OFFSET 0.000000 -39.717900 0.002100
    CHANNELS 3 Yrotation Xrotation Zrotation
    JOINT RightToe
    {
     OFFSET 0.000000 -4.965400 11.033500
     CHANNELS 3 Yrotation Xrotation Zrotation
     End Site
     {
      OFFSET 0.000000 -1.423100 5.872300
     }
    }
   }
  }
 }
 JOINT LeftHip
 {
  OFFSET 7.771700 -0.012900 -0.001300
  CHANNELS 3 Yrotation Xrotation Zrotation
  JOINT LeftKnee
  {
   OFFSET 0.000000 -40.869800 0.001200
   CHANNELS 3 Yrotation Xrotation Zrotation
   JOINT LeftAnkle
   {
    OFFSET 0.000000 -39.717900 0.002100
    CHANNELS 3 Yrotation Xrotation Zrotation
    JOINT LeftToe
    {
     OFFSET 0.000000 -4.965400 11.033500
     CHANNELS 3 Yrotation Xrotation Zrotation
     End Site
     {
      OFFSET 0.000000 -1.423100 5.872300
     }
    }
   }
  }
 }
}
MOTION
Frames: 16
Frame Time: 0.008333
-6.469012 54.132182 27.857515 178.801136 -30.512449 -11.665775 -0.003619 12.376801 5.504852 0.229180 7.315954 2.157528 0.319233 9.118338 2.695308 0.201164 7.232192 2.108416 5.154755 20.974897 -2.304406 6.128356 -3.223890 -3.688607 -0.034898 1.440712 -2.169806 -14.921764 -8.180305 6.114333 -35.344175 -72.735175 46.546823 9.258105 0.486569 -4.199554 -9.648700 2.635908 -3.643520 7.002810 -2.110614 -1.475049 -61.666407 -84.031070 74.449479 17.020579 -10.058541 -4.761036 -18.883342 -33.793534 9.055112 25.708491 84.293079 22.127362 1.094416 -16.815892 -0.490128 -0.361756 1.325739 -0.149276 -16.790824 -47.089340 17.970697 172.049042 79.239087 168.083528 -0.779621 -16.376508 0.928810 -0.782158 -2.441480 -0.329180
-6.464076 54.154555 27.851362 178.854420 -30.477817 -11.651978 -0.046877 12.391872 5.486851 0.216945 7.285888 2.143735 0.322894 9.132930 2.704696 0.225098 7.315915 2.161973 5.116654 20.879092 -2.362098 6.151940 -3.261227 -3.677281 -0.043915 1.374398 -2.203479 -14.929189 -8.111778 6.094441 -35.636829 -72.808289 46.828059 9.291648 0.479439 -4.182746 -9.665612 2.558822 -3.660231 7.013738 -2.086499 -1.463973 -62.105215 -84.066037 74.884650 16.995524 -10.106685 -4.800177 -18.940568 -33.865550 9.022707 26.068083 84.373159 22.508661 1.074327 -16.913451 -0.535951 -0.335442 1.343415 -0.136413 -16.768739 -47.133958 17.939999 172.183105 79.236837 168.220069 -0.857097 -16.474903 0.946405 -0.732057 -2.345428 -0.302087
-6.452181 54.176384 27.845254 178.861036 -30.456455 -11.648927 -0.020243 12.451589 5.529277 0.197872 7.253413 2.128200 0.313554 9.109674 2.695262 0.235467 7.345136 2.179566 5.158401 20.857178 -2.323504 6.126330 -3.316388 -3.705014 -0.043254 1.361564 -2.200036 -14.942930 -8.052562 6.071266 -35.894886 -72.879353 47.093807 9.262827 0.439004 -4.094043 -9.668471 2.596409 -3.635035 7.011249 -2.132672 -1.484697 -62.610365 -84.021339 75.451989 17.049941 -10.124756 -4.894656 -18.975885 -33.923194 9.038200 26.415472 84.447752 22.865418 1.081080 -16.994391 -0.562486 -0.336370 1.378893 -0.136745 -16.738051 -47.176576 17.970307 172.244817 79.214367 168.269303 -0.905039 -16.515680 0.998893 -0.734262 -2.309195 -0.309524
-6.438305 54.197518 27.838981 178.868563 -30.437674 -11.650915 0.001363 12.490345 5.567714 0.210827 7.294158 2.153770 0.286210 9.061719 2.670925 0.232875 7.349411 2.182022 5.147671 20.810627 -2.340644 6.149791 -3.346593 -3.691916 -0.047847 1.346226 -2.194969 -14.966499 -7.999880 6.048385 -36.277075 -72.893940 47.484567 9.275131 0.406431 -3.993903 -9.676114 2.580714 -3.635507 7.011262 -2.135210 -1.469711 -63.025855 -83.998897 75.896639 17.077745 -10.138990 -4.952774 -19.000052 -33.971434 9.053079 26.762039 84.513067 23.228161 1.091024 -17.085510 -0.588554 -0.341475 1.415207 -0.140032 -16.709644 -47.216741 18.003440 172.287490 79.189400 168.302695 -0.949769 -16.552276 1.054826 -0.741383 -2.279754 -0.321886
-6.427621 54.214505 27.837649 178.888788 -30.379331 -11.633831 -0.010331 12.480888 5.571496 0.207388 7.298499 2.155637 0.303276 9.121444 2.704233 0.207397 7.298508 2.155665 5.142335 20.762190 -2.357276 6.175921 -3.372113 -3.675728 -0.050634 1.324408 -2.191995 -14.999777 -7.950559 6.030364 -36.643743 -72.895443 47.868946 9.298942 0.385837 -3.905554 -9.683313 2.537596 -3.644010 7.016593 -2.121093 -1.442600 -63.315553 -84.001959 76.205650 17.085224 -10.134256 -5.006230 -19.034304 -34.066321 9.055507 27.164896 84.580258 23.644397 1.089915 -17.180380 -0.610341 -0.349011 1.457212 -0.142805 -16.685507 -47.300894 18.007525 172.312335 79.173739 168.320668 -0.982976 -16.592433 1.097838 -0.757514 -2.236589 -0.325046
-6.417238 54.232811 27.834054 178.912355 -30.336715 -11.610747 -0.031795 12.477662 5.558574 0.208193 7.315581 2.163976 0.298353 9.128453 2.705722 0.200194 7.269933 2.142818 5.167592 20.757697 -2.338321 6.186803 -3.413957 -3.668028 -0.046293 1.328099 -2.181415 -15.045470 -7.901092 6.022214 -36.901789 -72.913652 48.155146 9.304394 0.369157 -3.818790 -9.683728 2.523670 -3.644728 7.027546 -2.111886 -1.417853 -63.475642 -84.026632 76.364355 17.088007 -10.125077 -5.034428 -19.065763 -34.146491 9.054348 27.551535 84.645186 24.038892 1.049987 -17.251674 -0.635301 -0.330375 1.478595 -0.133200 -16.644166 -47.358027 17.984052 172.402634 79.169418 168.419806 -1.044393 -16.672932 1.110047 -0.727109 -2.157737 -0.303247
-6.402210 54.253368 27.829303 178.901607 -30.312712 -11.594239 -0.025475 12.464382 5.554736 0.210844 7.330099 2.171541 0.302010 9.163789 2.718658 0.191763 7.241032 2.132591 5.220728 20.777453 -2.273414 6.170452 -3.484638 -3.695910 -0.044444 1.310780 -2.185680 -15.098932 -7.834330 6.028674 -37.065317 -72.949294 48.362527 9.313990 0.361133 -3.748050 -9.679972 2.525733 -3.644448 7.039270 -2.126318 -1.398120 -63.553561 -84.054696 76.444008 17.096908 -10.055264 -5.095531 -19.075039 -34.209067 9.083644 27.787485 84.716717 24.277223 1.039297 -17.304850 -0.651465 -0.328655 1.486094 -0.131883 -16.596920 -47.392758 17.993967 172.500726 79.165128 168.523393 -1.082806 -16.727386 1.133452 -0.716072 -2.107744 -0.300206
-6.386895 54.275491 27.822937 178.899245 -30.298535 -11.580524 -0.008849 12.494433 5.574207 0.212880 7.350115 2.174675 0.294703 9.159911 2.712284 0.194316 7.300103 2.152812 5.217431 20.682584 -2.287560 6.176788 -3.536661 -3.685383 -0.055334 1.203401 -2.216991 -15.156707 -7.768845 6.041746 -37.151576 -73.006490 48.509921 9.331943 0.368437 -3.707991 -9.686968 2.437223 -3.652887 7.050222 -2.145779 -1.376759 -63.543175 -84.100532 76.421760 17.122497 -9.951939 -5.147139 -19.091825 -34.257120 9.117535 28.189262 84.780985 24.670830 0.995582 -17.356013 -0.672313 -0.306475 1.488282 -0.119680 -16.577582 -47.426218 18.011279 172.519714 79.141536 168.527026 -1.096549 -16.732533 1.169247 -0.742631 -2.109309 -0.313328
-6.371932 54.296943 27.818582 178.893800 -30.269180 -11.561575 0.006022 12.509232 5.584254 0.221486 7.369121 2.180273 0.276394 9.125147 2.697428 0.208469 7.357372 2.166566 5.201233 20.607142 -2.298847 6.190405 -3.577499 -3.658173 -0.074048 1.140212 -2.235425 -15.212997 -7.714560 6.066155 -37.208360 -73.050369 48.619076 9.361268 0.359667 -3.685296 -9.698017 2.387123 -3.646360 7.055436 -2.171702 -1.358225 -63.302103 -84.184914 76.189553 17.137871 -9.838825 -5.211988 -19.104459 -34.315456 9.132736 28.638984 84.835920 25.124701 0.998065 -17.437319 -0.693071 -0.318467 1.512072 -0.130867 -16.565362 -47.483689 18.046992 172.515538 79.114307 168.478327 -1.074926 -16.689469 1.245545 -0.828631 -2.152639 -0.351493
-6.362248 54.318241 27.813105 178.922705 -30.234871 -11.526720 -0.009078 12.521136 5.561127 0.221175 7.379199 2.179885 0.282681 9.150611 2.702746 0.203148 7.350428 2.162227 5.209141 20.569497 -2.275991 6.180660 -3.633319 -3.649939 -0.088781 1.082170 -2.253643 -15.266228 -7.649640 6.095457 -37.138912 -73.111737 48.585032 9.357854 0.334447 -3.658725 -9.708995 2.346231 -3.632728 7.049378 -2.198285 -1.358421 -62.712859 -84.363784 75.577075 17.062437 -9.719113 -5.236935 -19.132718 -34.383248 9.118471 28.878904 84.899937 25.361738 0.975739 -17.489280 -0.720226 -0.297047 1.521367 -0.114340 -16.531804 -47.521773 18.022769 172.674996 79.121471 168.617994 -1.141097 -16.751678 1.277371 -0.793842 -2.089855 -0.336414
-6.349810 54.340989 27.807063 178.930120 -30.207601 -11.497570 -0.000747 12.537080 5.554728 0.218978 7.393896 2.177781 0.290758 9.177287 2.706465 0.197228 7.343165 2.157476 5.217938 20.533672 -2.252676 6.169976 -3.689679 -3.640175 -0.101449 1.018544 -2.278404 -15.302696 -7.581237 6.133683 -37.159659 -73.171347 48.642393 9.401459 0.343144 -3.676083 -9.715387 2.295741 -3.615138 7.038619 -2.221716 -1.358884 -62.144999 -84.543932 74.986466 17.030313 -9.579481 -5.271859 -19.155415 -34.441505 9.118947 29.071674 84.964670 25.553274 0.983462 -17.538634 -0.741704 -0.293589 1.528840 -0.113735 -16.503777 -47.550221 18.025872 172.836224 79.129423 168.753499 -1.178132 -16.787443 1.311188 -0.783896 -2.053277 -0.331836
-6.337005 54.363671 27.802025 178.928556 -30.171503 -11.466467 0.011985 12.547550 5.549496 0.215321 7.410702 2.173964 0.283078 9.148494 2.698691 0.204805 7.392151 2.159549 5.219124 20.491322 -2.236771 6.160621 -3.736244 -3.646066 -0.119244 0.937302 -2.321676 -15.312090 -7.494279 6.190168 -37.239929 -73.216701 48.745696 9.454532 0.353128 -3.700675 -9.725222 2.233287 -3.592046 7.034566 -2.231479 -1.351132 -61.611011 -84.744143 74.428386 17.044909 -9.440223 -5.337916 -19.180422 -34.505302 9.128528 29.190966 85.025243 25.669089 0.995054 -17.586316 -0.759923 -0.290214 1.527137 -0.120257 -16.483149 -47.562743 18.075290 173.155415 79.162678 169.020917 -1.273321 -16.874232 1.353759 -0.725032 -1.963738 -0.304982
-6.327069 54.387342 27.794902 178.954180 -30.139256 -11.431800 0.010287 12.621304 5.540023 0.202190 7.376249 2.157024 0.276553 9.117117 2.691781 0.211193 7.445315 2.159505 5.218770 20.447531 -2.220040 6.154307 -3.785337 -3.652054 -0.132581 0.842669 -2.339351 -15.306849 -7.404444 6.220336 -37.365144 -73.272748 48.882024 9.479991 0.372380 -3.712762 -9.731341 2.168179 -3.565304 7.032801 -2.240161 -1.351078 -60.987715 -84.974294 73.776650 17.077356 -9.325860 -5.462629 -19.215107 -34.564695 9.108490 29.324549 85.084925 25.804993 0.994391 -17.620114 -0.789330 -0.267453 1.518025 -0.111884 -16.472697 -47.584996 18.069583 173.337310 79.177659 169.169272 -1.347953 -16.934351 1.372759 -0.675148 -1.902984 -0.281274
-6.316948 54.411617 27.787895 178.998709 -30.100017 -11.408608 -0.019368 12.665289 5.519127 0.200102 7.371432 2.150017 0.272846 9.126742 2.688750 0.218033 7.458336 2.155321 5.214583 20.398562 -2.203353 6.150641 -3.832778 -3.631248 -0.141575 0.712675 -2.406652 -15.303889 -7.269138 6.291273 -37.671689 -73.245060 49.193911 9.485602 0.389069 -3.688112 -9.752408 2.098772 -3.534310 7.046303 -2.242798 -1.349947 -60.323164 -85.234020 73.081714 17.119073 -9.233049 -5.657528 -19.266872 -34.621338 9.082763 29.470070 85.137747 25.954528 1.025125 -17.651035 -0.823100 -0.237332 1.506690 -0.106538 -16.453580 -47.558360 18.067270 173.602395 79.289480 169.447240 -1.536924 -17.060490 1.331553 -0.500186 -1.735004 -0.204114
-6.308749 54.436334 27.780679 179.011561 -30.064219 -11.359118 -0.026195 12.693158 5.482057 0.201941 7.381028 2.146846 0.291588 9.203166 2.692139 0.206090 7.402703 2.147125 5.204498 20.334817 -2.192161 6.146316 -3.873499 -3.601209 -0.155554 0.610769 -2.413640 -15.289455 -7.175651 6.313941 -38.102019 -73.177366 49.630046 9.500845 0.385543 -3.637389 -9.786965 2.032090 -3.498083 7.074543 -2.235992 -1.353478 -59.846294 -85.504312 72.573524 17.169946 -9.146553 -5.925365 -19.286490 -34.687192 9.047006 29.623682 85.189506 26.105069 1.067052 -17.672293 -0.858988 -0.207252 1.491330 -0.095710 -16.397758 -47.554709 18.043226 173.783696 79.350979 169.613976 -1.675512 -17.186397 1.338743 -0.393647 -1.598606 -0.162224
-6.299409 54.463484 27.771399 178.982570 -30.050614 -11.297438 -0.002383 12.704917 5.443913 0.214051 7.419935 2.151425 0.298566 9.236054 2.688792 0.203460 7.390116 2.143185 5.188333 20.251889 -2.191428 6.129089 -3.946450 -3.538313 -0.161571 0.483928 -2.453431 -15.287867 -7.044669 6.358950 -38.594587 -73.102461 50.134885 9.509716 0.377943 -3.562687 -9.824593 1.972089 -3.465483 7.100761 -2.227433 -1.359913 -59.617934 -85.760998 72.323471 17.233853 -9.056826 -6.262625 -19.271030 -34.734015 9.023141 29.704696 85.242199 26.186670 1.065689 -17.707690 -0.876295 -0.199979 1.490213 -0.095887 -16.293327 -47.515395 18.010852 173.928706 79.410422 169.748181 -1.806563 -17.378214 1.337713 -0.298040 -1.418344 -0.116233
